P3
18 18 255
0 0 64
0 0 0
0 0 64
0 0 64
0 0 64
0 0 64
0 0 64
0 0 64
0 0 64
0 0 64
0 0 64
0 0 64
0 0 64
0 0 64
0 0 0
0 0 0
0 0 64
0 0 64
0 0 64
0 0 64
0 0 64
0 0 64
0 0 64
0 0 64
0 0 128
0 0 64
0 0 128
0 0 64
0 0 64
0 0 64
0 0 64
0 0 64
0 0 64
0 0 128
0 0 64
0 0 64
0 0 64
0 0 64
0 0 64
0 0 64
0 0 64
0 0 64
0 0 64
0 0 64
0 0 0
0 0 64
0 0 64
0 0 64
0 0 64
0 0 64
0 0 64
0 0 0
0 0 128
0 0 64
0 0 64
0 0 64
0 0 64
0 0 64
0 0 64
0 0 64
0 0 128
0 0 0
0 0 64
0 0 64
0 0 64
0 0 64
0 0 64
0 0 128
0 0 64
0 0 64
0 0 64
0 0 64
0 0 64
0 0 64
0 0 64
0 0 64
0 0 0
0 0 64
0 0 128
0 0 64
0 0 64
0 0 64
0 0 64
0 0 64
0 0 64
0 0 64
0 0 128
0 0 64
0 0 64
0 0 64
0 0 64
0 0 64
0 0 64
0 0 64
0 0 0
0 0 64
0 0 128
0 0 128
0 0 64
0 0 64
0 0 64
0 0 64
0 0 64
0 0 64
0 0 64
0 0 128
0 0 128
0 0 64
0 0 64
0 0 64
0 0 64
0 0 64
0 0 64
0 0 64
0 0 128
0 0 64
0 0 128
0 0 64
0 0 64
0 0 64
0 0 64
0 0 64
0 0 64
0 0 64
0 0 64
0 0 64
0 0 64
0 0 64
0 0 64
0 0 0
0 0 64
0 0 128
0 0 64
0 0 64
0 0 64
0 0 64
0 0 64
0 0 64
0 0 64
0 0 64
0 0 64
0 0 0
0 0 128
0 0 64
0 0 0
0 0 128
0 0 64
0 0 64
0 0 128
0 0 64
0 0 128
0 0 0
0 0 64
0 0 64
0 0 64
0 0 64
0 0 64
0 0 64
0 0 64
0 0 64
0 0 64
0 0 64
0 0 64
0 0 64
0 0 255
0 0 255
0 0 255
0 0 64
0 0 64
0 0 0
0 0 64
0 0 64
0 0 64
0 0 64
0 0 64
0 0 64
0 0 64
0 0 64
0 0 64
0 0 64
0 0 64
0 0 64
0 0 64
0 0 64
0 0 64
0 0 64
0 0 64
0 0 64
0 0 64
0 0 64
0 0 64
0 0 64
0 0 64
0 0 64
0 0 64
0 0 64
0 0 64
0 0 0
0 0 64
0 0 64
0 0 64
0 0 64
0 0 64
0 0 64
0 0 64
0 0 64
0 0 64
0 0 64
0 0 64
0 0 64
0 0 64
0 0 64
0 0 64
0 0 64
0 0 64
0 0 64
0 0 64
0 0 64
0 0 64
0 0 64
0 0 64
0 0 64
0 0 64
0 0 0
0 0 64
0 0 64
0 0 64
0 0 64
0 0 64
0 0 64
0 0 64
0 0 0
0 0 64
0 0 128
0 0 64
0 0 64
0 0 64
0 0 64
0 0 64
0 0 64
0 0 64
0 0 64
0 0 0
0 0 64
0 0 64
0 0 64
0 0 64
0 0 64
0 0 64
0 0 64
0 0 0
0 0 64
0 0 64
0 0 64
0 0 64
0 0 64
0 0 0
0 0 64
0 0 128
0 0 0
0 0 64
0 0 64
0 0 64
0 0 64
0 0 64
0 0 64
0 0 64
0 0 64
0 0 0
0 0 64
0 0 64
0 0 64
0 0 64
0 0 64
0 0 0
0 0 64
0 0 0
0 0 64
0 0 0
0 0 64
0 0 64
0 0 64
0 0 64
0 0 64
0 0 64
0 0 0
0 0 64
0 0 64
0 0 64
0 0 0
0 0 64
0 0 64
0 0 128
0 0 64
0 0 128
0 0 64
0 0 128
0 0 64
0 0 64
0 0 128
0 0 64
0 0 128
0 0 64
0 0 128
0 0 64
0 0 64
0 0 64
0 0 64
0 0 64
0 0 64
0 0 64
0 0 64
0 0 128
0 0 128
0 0 128
0 0 64
0 0 64
0 0 64
0 0 64
0 0 0
0 0 64
0 0 0
0 0 64
0 0 64
