P3
18 18 255
218 103 76
0 0 0
1 49 23
225 189 221
243 198 222
38 4 241
201 156 14
114 113 3
179 133 112
227 188 85
96 4 214
190 5 4
85 226 27
61 69 74
0 0 0
0 0 0
70 78 238
214 40 13
98 189 24
204 92 1
165 14 203
233 77 41
60 251 4
63 226 226
81 23 38
95 71 72
132 161 208
103 43 185
247 120 115
47 80 244
237 30 83
72 108 188
108 77 118
73 142 144
54 216 97
107 158 2
85 19 108
199 125 21
124 84 68
132 70 126
166 224 206
203 71 48
191 231 245
185 77 235
0 0 0
64 200 169
68 1 193
39 225 222
151 137 222
12 175 251
105 79 133
0 0 0
248 152 168
243 145 96
121 222 172
72 221 1
199 195 194
96 232 201
172 50 243
15 189 242
199 27 164
0 0 0
222 191 60
202 9 218
15 16 207
86 10 146
1 52 237
173 117 169
137 141 45
159 14 72
155 233 182
230 197 217
204 203 7
242 251 225
192 219 4
236 224 247
0 0 0
66 224 74
33 199 229
41 176 30
205 149 126
80 60 154
11 140 187
181 143 246
56 85 22
211 79 42
183 240 140
62 41 222
208 249 77
0 227 43
4 160 181
70 111 84
12 17 162
108 67 42
0 0 0
90 119 102
233 205 92
147 69 138
163 123 221
254 164 143
115 60 10
103 235 55
123 108 46
80 200 164
142 7 158
52 192 215
126 112 142
163 113 112
119 173 252
178 97 147
55 62 111
133 95 246
161 181 70
234 151 104
52 103 202
5 3 29
51 70 101
177 232 208
109 0 41
115 161 152
198 99 218
204 158 57
138 216 30
141 125 87
106 194 135
5 159 174
33 232 138
28 141 237
176 231 224
0 0 0
22 98 228
105 51 51
125 131 57
85 148 172
66 195 227
1 85 123
142 58 176
88 56 195
3 138 132
60 21 191
254 87 174
0 0 0
249 237 121
143 120 142
0 0 0
36 130 180
124 158 36
5 178 20
60 137 157
150 149 64
191 214 242
0 0 0
219 219 16
97 230 161
36 220 36
102 181 233
30 134 8
87 30 30
176 25 134
166 187 169
245 243 126
54 34 117
240 228 159
206 103 217
80 37 95
89 39 242
174 188 26
142 180 127
14 14 4
0 0 0
234 226 216
15 150 240
133 73 104
133 198 132
91 194 160
186 201 223
24 200 93
206 143 158
162 18 186
20 115 35
123 170 44
173 126 136
172 191 247
239 61 157
7 141 174
50 71 109
55 158 100
245 134 175
45 111 97
72 218 111
25 225 209
18 101 196
181 44 176
199 218 230
187 171 61
175 141 110
24 194 8
0 0 0
217 30 71
170 112 223
151 129 141
143 55 215
57 192 211
17 5 160
50 34 93
68 18 143
21 252 17
137 24 144
3 254 104
166 209 69
171 201 162
12 110 78
164 124 182
90 217 145
227 244 250
106 31 116
14 59 186
75 34 200
109 64 140
36 54 87
247 193 212
74 194 160
63 47 107
0 0 0
1 226 71
161 98 106
67 23 115
115 143 131
57 39 43
70 99 234
4 145 30
0 0 0
84 241 215
24 172 252
156 207 189
5 129 186
166 134 242
105 56 173
6 142 131
191 98 169
246 170 239
159 81 92
0 0 0
114 140 134
135 245 47
126 152 84
112 160 97
137 45 222
213 56 156
104 246 23
0 0 0
228 34 181
147 78 34
35 3 188
118 193 15
157 165 27
0 0 0
210 244 146
161 216 17
0 0 0
237 82 44
66 178 157
164 23 194
127 56 0
191 112 169
214 81 202
178 132 127
127 120 134
0 0 0
183 67 37
117 226 61
7 216 146
21 249 166
89 125 203
0 0 0
171 223 210
0 0 0
189 148 28
0 0 0
79 61 130
18 160 250
241 198 178
56 44 158
186 40 233
233 187 17
0 0 0
249 143 114
137 184 1
142 6 212
0 0 0
109 231 216
210 215 130
117 26 17
197 146 137
233 143 167
159 58 184
193 45 88
254 141 221
181 154 179
83 241 145
54 241 198
59 190 100
38 31 67
63 60 140
133 182 140
94 82 235
241 55 26
218 40 184
248 49 35
138 125 28
138 10 95
21 48 201
32 19 208
45 89 39
66 57 222
153 102 100
90 252 195
99 83 198
64 55 79
0 0 0
213 119 98
0 0 0
128 116 244
136 184 11
